#N canvas 501 93 1239 962 10;
#X obj -2 -1 cnv 15 1280 1024 empty empty Cyber_Lapsus 20 12 0 14 -1
-233017 0;
#X obj 2 28 cnv 15 390 221 empty empty Azertyuiop 20 12 0 14 -195568
-66577 0;
#X obj 402 28 cnv 15 390 221 empty empty Clavier 20 12 0 14 -195568
-66577 0;
#X obj 0 726 cnv 15 390 200 empty empty Affichage 20 12 0 14 -195568
-66577 0;
#X obj 402 727 cnv 15 390 200 empty empty Initialisations 20 12 0 14
-195568 -66577 0;
#X obj 19 261 cnv 15 1168 460 empty empty empty 20 12 0 14 -66577 -66577
0;
#X obj 802 28 cnv 15 390 221 empty empty Ya_qqun? 20 12 0 14 -195568
-66577 0;
#X obj 805 726 cnv 15 390 200 empty empty Commentaires 20 12 0 14 -195568
-66577 0;
#X obj 25 266 cnv 15 1155 450 empty empty Clavier2audio-video 20 12
0 14 -260145 -4 0;
#N canvas 234 394 706 556 Gestion_Affichage 0;
#N canvas 208 317 558 738 GemWin_Benj 0;
#X msg 75 111 create \, 1;
#X msg 61 54 stereo 2;
#X msg 53 34 border 0;
#X msg -35 95 dimen 800 600;
#X msg -35 112 offset 0 0;
#X msg -35 130 dimen 400 300;
#X msg -35 148 fullscreen 1;
#X msg -35 77 offset 1024 0;
#X msg -35 166 fullscreen 0;
#X msg -35 184 lighting 1;
#X msg -35 201 lighting 0;
#X msg -36 215 dimen 200 150;
#X msg -35 235 cursor 0;
#X msg -35 253 cursor 1;
#X msg 62 77 stereo 0;
#X msg 74 132 destroy \, 0;
#X msg 55 151 dimen 1024 768;
#X msg -35 272 dimen 1024 768;
#X obj 126 11 inlet;
#X obj 150 77 key;
#X obj 150 117 bng 15 250 50 0 empty empty empty 0 -6 0 8 -262144 -1
-1;
#X msg -31 34 border 1;
#X obj 150 97 select 27;
#X obj 131 536 gemwin 25;
#X obj 131 450 t a;
#X obj 152 482 route dimen;
#X obj 152 504 s dimengemwin;
#X connect 0 0 24 0;
#X connect 1 0 24 0;
#X connect 2 0 24 0;
#X connect 3 0 24 0;
#X connect 4 0 24 0;
#X connect 5 0 24 0;
#X connect 6 0 24 0;
#X connect 7 0 24 0;
#X connect 8 0 24 0;
#X connect 9 0 24 0;
#X connect 10 0 24 0;
#X connect 11 0 24 0;
#X connect 12 0 24 0;
#X connect 13 0 24 0;
#X connect 14 0 24 0;
#X connect 15 0 24 0;
#X connect 16 0 24 0;
#X connect 17 0 24 0;
#X connect 18 0 24 0;
#X connect 19 0 22 0;
#X connect 20 0 15 0;
#X connect 21 0 24 0;
#X connect 22 0 20 0;
#X connect 24 0 23 0;
#X connect 24 0 25 0;
#X connect 25 0 26 0;
#X restore -39 235 pd GemWin_Benj;
#X msg 115 94 create \, 1;
#X msg -39 10 dimen 400 300;
#X msg -39 -23 dimen 1024 768;
#X msg -39 76 offset 1024 0;
#X msg -39 116 cursor 0;
#X msg -39 156 view 4 0 0 0 0 0 0 1 0;
#X msg 114 115 destroy \, 0;
#X msg -39 43 offset 1280 0;
#X msg -39 93 offset 0 0;
#X obj 124 158 vsl 8 50 0 1 0 0 empty empty empty 0 -8 0 8 -258699
-1 -1 4900 1;
#X obj 132 158 vsl 8 50 0 1 0 0 empty empty empty 0 -8 0 8 -24198 -1
-1 4900 1;
#X obj 140 158 vsl 8 50 0 1 0 0 empty empty empty 0 -8 0 8 -355 -1
-1 4900 1;
#N canvas 0 50 466 316 colgem 0;
#X obj 26 145 bng 15 250 50 0 empty empty empty 0 -6 0 8 -262144 -1
-1;
#X obj 41 144 t b f;
#X obj 41 35 vsl 8 50 0 1 0 0 empty empty empty 0 -8 0 8 -258699 -1
-1 4900 1;
#X obj 49 35 vsl 8 50 0 1 0 0 empty empty empty 0 -8 0 8 -24198 -1
-1 4900 1;
#X obj 57 35 vsl 8 50 0 1 0 0 empty empty empty 0 -8 0 8 -355 -1 -1
4900 1;
#X obj 63 167 t b f;
#X floatatom 67 101 5 0 0 0 - - -, f 5;
#X floatatom 53 115 5 0 0 0 - - -, f 5;
#X floatatom 35 129 5 0 0 0 - - -, f 5;
#X obj 17 7 inlet;
#X obj 52 7 inlet;
#X obj 87 7 inlet;
#X obj 44 261 outlet;
#X obj 44 212 pack f f f;
#X msg 44 236 color \$1 \$2 \$3;
#X connect 0 0 13 0;
#X connect 1 0 13 0;
#X connect 1 1 13 1;
#X connect 2 0 8 0;
#X connect 2 0 13 0;
#X connect 3 0 1 0;
#X connect 3 0 7 0;
#X connect 4 0 5 0;
#X connect 4 0 6 0;
#X connect 5 0 13 0;
#X connect 5 1 13 2;
#X connect 9 0 2 0;
#X connect 10 0 3 0;
#X connect 11 0 4 0;
#X connect 13 0 14 0;
#X connect 14 0 12 0;
#X restore 115 218 pd colgem;
#X msg -39 173 view 0 4 0 0 0 0 0 1 0;
#X msg -39 133 cursor 1;
#X msg -39 59 offset 1680 0;
#X obj 115 -14 inlet;
#X obj 115 64 t b b b b;
#X obj 115 23 select 1;
#X msg -40 -6 dimen 1280 1024;
#X obj 231 99 t b b;
#X msg -40 190 view 0 0 4 0 0 0 0 1 0;
#X text 8 208 default;
#X msg -40 26 dimen 800 600;
#X msg 111 250 border 1;
#X msg 6 267 offset 0 0;
#X msg 4 284 dimen 800 600;
#X msg 5 307 border 1;
#X obj 196 190 t a;
#X obj 196 143 loadbang;
#X msg 196 165 1;
#X obj 382 35 gemkeyboard;
#X floatatom 382 73 5 0 0 1 keyCode - -, f 5;
#X obj 382 94 sel 9;
#X obj 293 120 loadbang;
#X obj 291 143 delay 1500;
#X msg 272 194 dimen 800 600 \, border 1 \, title CYBERLAPSUS \, cursor
0 \, create \, 1;
#X msg 264 239 dimen 960 540 \, border 1 \, title CYBERLAPSUS \, cursor
0 \, create \, 1;
#X msg 271 167 dimen 1920 1080 \, border 0 \, title CYBERLAPSUS \,
topmost 1 \, cursor 0 \, create \, 1;
#X obj 545 34 key;
#X floatatom 545 62 5 0 0 1 keyCode - -, f 5;
#X obj 545 83 sel 27;
#X connect 1 0 0 0;
#X connect 2 0 0 0;
#X connect 3 0 0 0;
#X connect 4 0 0 0;
#X connect 5 0 0 0;
#X connect 6 0 0 0;
#X connect 7 0 0 0;
#X connect 8 0 0 0;
#X connect 9 0 0 0;
#X connect 10 0 13 0;
#X connect 11 0 13 1;
#X connect 12 0 13 2;
#X connect 13 0 0 0;
#X connect 14 0 0 0;
#X connect 15 0 0 0;
#X connect 16 0 0 0;
#X connect 17 0 19 0;
#X connect 18 0 1 0;
#X connect 18 1 27 0;
#X connect 18 2 26 0;
#X connect 18 3 28 0;
#X connect 19 0 18 0;
#X connect 19 1 21 0;
#X connect 20 0 0 0;
#X connect 21 0 7 0;
#X connect 21 1 7 0;
#X connect 22 0 0 0;
#X connect 24 0 0 0;
#X connect 25 0 0 0;
#X connect 26 0 0 0;
#X connect 27 0 0 0;
#X connect 28 0 0 0;
#X connect 29 0 10 0;
#X connect 29 0 11 0;
#X connect 29 0 12 0;
#X connect 30 0 31 0;
#X connect 31 0 29 0;
#X connect 32 0 33 0;
#X connect 33 0 34 0;
#X connect 34 0 7 0;
#X connect 35 0 36 0;
#X connect 36 0 39 0;
#X connect 37 0 0 0;
#X connect 38 0 0 0;
#X connect 39 0 0 0;
#X connect 40 0 41 0;
#X connect 41 0 42 0;
#X connect 42 0 7 0;
#X restore 111 848 pd Gestion_Affichage;
#X obj 111 813 tgl 29 0 empty empty Affichage-ON_OFF 0 -6 0 8 -24198
-258699 -1 0 1;
#X floatatom 515 103 2 0 0 2 state - -, f 2;
#X obj 515 47 gemkeyname;
#X symbolatom 582 101 10 0 0 2 keyName - -, f 10;
#X obj 539 158 spigot;
#X obj 534 430 r player;
#X obj 539 229 s;
#X obj 539 181 t a a;
#X obj 239 309 sfile z 12;
#X obj 316 309 sfile e 70;
#X obj 393 309 sfile r 114;
#X obj 477 309 sfile t 102;
#X obj 561 309 sfile y 20;
#X obj 638 309 sfile u 22;
#X obj 714 309 sfile i 51;
#X obj 868 309 sfile p 154;
#X obj 791 309 sfile o 64;
#X msg 571 204 symbol \$1;
#X obj 156 347 sfile q 103;
#X obj 240 347 sfile s 85;
#X obj 401 347 sfile f 71;
#X obj 478 347 sfile g 90;
#X obj 562 347 sfile h 7;
#X obj 639 347 sfile j 89;
#X obj 715 347 sfile k 103;
#X obj 799 347 sfile l 150;
#X obj 883 347 sfile m 131;
#X obj 319 380 sfile w 9;
#X obj 403 380 sfile x 9;
#X obj 564 380 sfile v 80;
#X obj 725 380 sfile n 116;
#X obj 534 617 lecteurCybVideo;
#X obj 580 487 f;
#X obj 611 487 + 1;
#X obj 641 487 % 6;
#X obj 595 468 bng 15 250 50 0 empty empty empty 17 7 0 10 -262144
-1 -1;
#X floatatom 615 512 5 0 0 0 - - -, f 5;
#X obj 580 509 + 1;
#X obj 557 578 gate 6;
#X obj 162 309 sfile a 64;
#X obj 317 347 sfile d 127;
#X msg 350 490 disconnect;
#X msg 342 468 connect localhost 3001;
#X obj 342 594 tgl 15 0 empty empty empty 17 7 0 10 -262144 -1 -1 1
1;
#N canvas 1043 265 870 708 feedback 0;
#X msg 243 163 snap;
#X obj 243 331 rotateXYZ;
#X obj 396 237 hsl 128 15 -34 34 0 0 empty empty empty -2 -6 0 8 -262144
-1 -1 0 1;
#X obj 243 134 t b a;
#X msg 477 220 0;
#X floatatom 301 638 5 0 0 0 - - -, f 5;
#X floatatom 359 636 5 0 0 0 - - -, f 5;
#X floatatom 311 531 5 0 0 0 - - -, f 5;
#X obj 348 583 * 3;
#X obj 349 604 / 4;
#X obj 243 646 alpha;
#X obj 352 82 vsl 8 50 0 1 0 0 empty empty empty 0 -8 0 8 -258699 -1
-1 4900 1;
#X obj 359 82 vsl 8 50 0 1 0 0 empty empty empty 0 -8 0 8 -24198 -1
-1 4900 1;
#X obj 367 82 vsl 8 50 0 1 0 0 empty empty empty 0 -8 0 8 -355 -1 -1
4900 1;
#N canvas 240 355 587 310 color 0;
#X obj 44 212 pack f f f f;
#X msg 44 236 \$1 \$2 \$3 \$4;
#X obj 26 145 bng 15 250 50 0 empty empty empty 0 -6 0 8 -262144 -1
-1;
#X obj 41 144 t b f;
#X obj 41 35 vsl 8 50 0 1 0 0 empty empty empty 0 -8 0 8 -258699 -1
-1 4900 1;
#X obj 49 35 vsl 8 50 0 1 0 0 empty empty empty 0 -8 0 8 -24198 -1
-1 4900 1;
#X obj 57 35 vsl 8 50 0 1 0 0 empty empty empty 0 -8 0 8 -355 -1 -1
4900 1;
#X obj 65 35 vsl 8 50 0 1 0 0 empty empty empty 0 -8 0 8 -195568 -1
-1 4395 1;
#X obj 63 167 t b f;
#X obj 86 189 t b f;
#X floatatom 77 86 5 0 0 0 - - -, f 5;
#X floatatom 67 101 5 0 0 0 - - -, f 5;
#X floatatom 53 115 5 0 0 0 - - -, f 5;
#X floatatom 35 129 5 0 0 0 - - -, f 5;
#X obj 17 7 inlet;
#X obj 52 7 inlet;
#X obj 87 7 inlet;
#X obj 122 8 inlet;
#X obj 44 261 outlet;
#X connect 0 0 1 0;
#X connect 1 0 18 0;
#X connect 2 0 0 0;
#X connect 3 0 0 0;
#X connect 3 1 0 1;
#X connect 4 0 0 0;
#X connect 4 0 13 0;
#X connect 5 0 3 0;
#X connect 5 0 12 0;
#X connect 6 0 8 0;
#X connect 6 0 11 0;
#X connect 7 0 9 0;
#X connect 7 0 10 0;
#X connect 8 0 0 0;
#X connect 8 1 0 2;
#X connect 9 0 0 0;
#X connect 9 1 0 3;
#X connect 14 0 4 0;
#X connect 15 0 5 0;
#X connect 16 0 6 0;
#X connect 17 0 7 0;
#X restore 342 142 pd color;
#X obj 375 82 vsl 8 50 0 1 0 0 empty empty empty 0 -8 0 8 -195568 -1
-1 4395 1;
#X obj 243 475 color;
#X obj 243 88 tgl 15 0 empty empty empty 17 7 0 10 -262144 -1 -1 0
1;
#X floatatom 393 254 5 0 0 0 - - -, f 5;
#X obj 265 294 hsl 128 15 -34 34 0 0 empty empty empty -2 -6 0 8 -262144
-1 -1 0 1;
#X msg 264 269 0;
#X floatatom 262 311 5 0 0 0 - - -, f 5;
#X obj 442 261 hsl 128 15 -34 34 0 0 empty empty empty -2 -6 0 8 -262144
-1 -1 0 1;
#X floatatom 439 278 5 0 0 0 - - -, f 5;
#X msg 311 502 5.76;
#X msg 361 47 1;
#X obj 376 70 tgl 10 0 empty empty empty 17 7 0 10 -99865 -262144 -1
0 1;
#X msg 389 69 0.551;
#X msg 606 261 720;
#X msg 609 283 0;
#X floatatom 329 392 5 0 0 0 - - -, f 5;
#X floatatom 292 390 5 0 0 0 - - -, f 5;
#X floatatom 257 390 5 0 0 0 - - -, f 5;
#X msg 329 371 270;
#X msg 365 371 0;
#X msg 259 363 0;
#X msg 285 363 182;
#X msg 393 371 86;
#X obj 243 409 translateXYZ;
#X msg 531 422 1 1 1 1;
#X msg 531 440 1 1 1 0.5;
#X msg 577 422 1 1 1 0.88;
#X msg 351 504 5.36;
#X msg 387 506 5.32;
#X msg 599 440 1 1 1 0.75;
#X msg 321 478 5.52;
#X obj 243 37 inlet;
#X msg 400 47 0.897;
#X obj 243 110 gemhead -115;
#X obj 414 137 pack f f;
#X msg 406 156 \$1 \$2;
#X floatatom 414 115 5 0 0 0 - - -, f 5;
#X floatatom 462 114 5 0 0 0 - - -, f 5;
#X obj 243 196 pix_snap2tex 0 0 800 600;
#X obj 518 179 r dimengemwin;
#X obj 518 201 print dddd;
#X obj 361 27 loadbang;
#X obj 374 412 loadbang;
#X obj 394 583 * 1080;
#X obj 396 604 / 1920;
#X floatatom 370 546 5 0 0 0 - - -, f 5;
#X obj 243 682 rectangle 7.12 4.005;
#X text 432 538 7.12 7.15;
#X connect 0 0 53 0;
#X connect 1 0 38 0;
#X connect 2 0 18 0;
#X connect 3 0 0 0;
#X connect 3 1 53 0;
#X connect 4 0 2 0;
#X connect 5 0 61 1;
#X connect 6 0 61 2;
#X connect 7 0 8 0;
#X connect 7 0 5 0;
#X connect 8 0 9 0;
#X connect 9 0 6 0;
#X connect 10 0 61 0;
#X connect 11 0 14 0;
#X connect 12 0 14 1;
#X connect 13 0 14 2;
#X connect 14 0 16 1;
#X connect 15 0 14 3;
#X connect 16 0 10 0;
#X connect 17 0 48 0;
#X connect 18 0 1 2;
#X connect 19 0 21 0;
#X connect 20 0 19 0;
#X connect 21 0 1 1;
#X connect 22 0 23 0;
#X connect 23 0 1 3;
#X connect 24 0 7 0;
#X connect 25 0 11 0;
#X connect 25 0 12 0;
#X connect 25 0 13 0;
#X connect 26 0 15 0;
#X connect 27 0 15 0;
#X connect 28 0 23 0;
#X connect 29 0 23 0;
#X connect 30 0 38 3;
#X connect 31 0 38 2;
#X connect 32 0 38 1;
#X connect 33 0 30 0;
#X connect 34 0 30 0;
#X connect 35 0 32 0;
#X connect 36 0 32 0;
#X connect 37 0 30 0;
#X connect 38 0 16 0;
#X connect 39 0 16 1;
#X connect 40 0 16 1;
#X connect 41 0 16 1;
#X connect 42 0 7 0;
#X connect 43 0 7 0;
#X connect 44 0 16 1;
#X connect 45 0 7 0;
#X connect 46 0 17 0;
#X connect 47 0 15 0;
#X connect 48 0 3 0;
#X connect 49 0 50 0;
#X connect 50 0 53 2;
#X connect 51 0 49 0;
#X connect 52 0 49 1;
#X connect 53 0 1 0;
#X connect 54 0 53 2;
#X connect 56 0 25 0;
#X connect 56 0 47 0;
#X connect 58 0 59 0;
#X connect 59 0 6 0;
#X connect 60 0 5 0;
#X connect 60 0 58 0;
#X restore 846 160 pd feedback;
#X obj 846 127 tgl 15 0 empty empty empty 17 7 0 10 -258113 -1 -1 0
1;
#X msg 350 548 send \$1 \$2;
#X obj 534 451 t a a b;
#X obj 342 426 loadbang;
#X obj 342 448 delay 1000;
#X obj 342 573 netsend;
#N canvas 241 166 1164 889 videobackground 0;
#X obj 124 94 tgl 19 0 empty empty Gem 0 -6 0 8 -258699 -1 -1 0 1;
#X obj 124 675 alpha;
#X obj 63 660 tgl 15 1 empty empty empty 0 -6 0 8 -262144 -1 -1 1 1
;
#X obj 124 696 color;
#X obj 249 619 vsl 8 50 0 1 0 0 empty empty empty 0 -8 0 8 -258699
-1 -1 4900 1;
#X obj 257 619 vsl 8 50 0 1 0 0 empty empty empty 0 -8 0 8 -24198 -1
-1 4900 1;
#X obj 265 619 vsl 8 50 0 1 0 0 empty empty empty 0 -8 0 8 -355 -1
-1 4900 1;
#X obj 273 619 vsl 8 50 0 1 0 0 empty empty empty 0 -8 0 8 -195568
-1 -1 4900 1;
#N canvas 1 110 452 302 color 0;
#X obj 44 212 pack f f f f;
#X msg 44 236 \$1 \$2 \$3 \$4;
#X obj 26 145 bng 15 250 50 0 empty empty empty 0 -6 0 8 -262144 -1
-1;
#X obj 41 144 t b f;
#X obj 41 35 vsl 8 50 0 1 0 0 empty empty empty 0 -8 0 8 -258699 -1
-1 4900 1;
#X obj 49 35 vsl 8 50 0 1 0 0 empty empty empty 0 -8 0 8 -24198 -1
-1 4900 1;
#X obj 57 35 vsl 8 50 0 1 0 0 empty empty empty 0 -8 0 8 -355 -1 -1
4900 1;
#X obj 65 35 vsl 8 50 0 1 0 0 empty empty empty 0 -8 0 8 -195568 -1
-1 4900 1;
#X obj 63 167 t b f;
#X obj 86 189 t b f;
#X floatatom 77 86 5 0 0 0 - - -, f 5;
#X floatatom 67 101 5 0 0 0 - - -, f 5;
#X floatatom 53 115 5 0 0 0 - - -, f 5;
#X floatatom 35 129 5 0 0 0 - - -, f 5;
#X obj 17 7 inlet;
#X obj 52 7 inlet;
#X obj 87 7 inlet;
#X obj 122 8 inlet;
#X obj 44 261 outlet;
#X connect 0 0 1 0;
#X connect 1 0 18 0;
#X connect 2 0 0 0;
#X connect 3 0 0 0;
#X connect 3 1 0 1;
#X connect 4 0 0 0;
#X connect 4 0 13 0;
#X connect 5 0 3 0;
#X connect 5 0 12 0;
#X connect 6 0 8 0;
#X connect 6 0 11 0;
#X connect 7 0 9 0;
#X connect 7 0 10 0;
#X connect 8 0 0 0;
#X connect 8 1 0 2;
#X connect 9 0 0 0;
#X connect 9 1 0 3;
#X connect 14 0 4 0;
#X connect 15 0 5 0;
#X connect 16 0 6 0;
#X connect 17 0 7 0;
#X restore 240 679 pd color;
#X msg 249 574 1;
#X floatatom 201 820 5 0 0 0 - - -, f 5;
#X floatatom 235 820 5 0 0 0 - - -, f 5;
#X floatatom 201 785 5 0 0 0 - - -, f 5;
#X obj 235 803 * 3;
#X obj 235 803 / 4;
#X obj 124 804 pix_texture;
#X obj 124 834 rectangle 5.334 4;
#X obj 400 419 cnv 15 390 381 empty empty Gestion_Alpha 20 12 0 14
-195568 -66577 0;
#X obj 37 173 bng 15 250 50 0 empty empty pix_load 20 8 0 8 -24198
-258699 -1;
#X obj 124 274 pix_film;
#X msg 286 224 auto \$1;
#X msg 37 215 open \$1;
#X obj 37 196 openpanel;
#X obj 286 199 tgl 15 0 empty empty empty 0 -6 0 8 -262144 -1 -1 1
1;
#X floatatom 215 260 5 0 0 0 - - -, f 5;
#X obj 150 334 unpack 0 0 0;
#X floatatom 150 356 5 0 0 3 length - -, f 5;
#X floatatom 197 356 5 0 0 3 width - -, f 5;
#X floatatom 231 356 5 0 0 3 height - -, f 5;
#X obj 193 316 bng 15 250 50 0 empty empty La_Fin 20 7 0 8 -1 -262144
-1;
#X obj 483 62 inlet;
#X obj 150 389 outlet;
#X obj 167 296 t b;
#X msg 292 257 colorspace rgba;
#X obj 582 566 line;
#X obj 476 532 f;
#X msg 476 549 0 \$1;
#X obj 679 532 f;
#X msg 679 549 1 \$1;
#X floatatom 697 519 5 0 0 0 - - -, f 5;
#X floatatom 491 519 5 0 0 0 - - -, f 5;
#X obj 582 583 spigot;
#X obj 613 568 tgl 15 0 empty empty empty 0 -6 0 8 -258699 -1 -1 0
1;
#X obj 560 501 cnv 15 120 21 empty empty Temps_Fade_(ms) 4 8 0 10 -262136
-66577 0;
#X text 527 520 < disparition;
#X msg 483 227 1;
#X obj 305 326 t b b b b b;
#X msg 360 350 0;
#X obj 491 468 r tpsFadInVFb;
#X obj 491 502 f;
#X obj 697 471 r tpsFadOutVFb;
#X obj 697 501 f;
#X obj 582 618 vsl 42 80 1e-05 0.1 0 0 empty empty Alpha 0 -8 0 8 -99865
-262144 -1 0 1;
#X obj 286 389 outlet;
#X msg 280 575 0;
#X obj 249 504 loadbang;
#X obj 718 206 bng 19 250 50 0 empty empty Start_Video 0 -8 0 8 -24198
-258699 -1;
#X msg 483 176 open \$1;
#X msg 520 227 1;
#X msg 326 350 0;
#X obj 483 200 t b b a b b;
#X obj 483 155 makesymbol space/space%s.avi.mov;
#X obj 124 118 gemhead 29;
#X obj 289 139 loadbang;
#X msg 287 175 1;
#X connect 0 0 62 0;
#X connect 1 0 3 0;
#X connect 2 0 1 0;
#X connect 3 0 15 0;
#X connect 4 0 8 0;
#X connect 5 0 8 1;
#X connect 6 0 8 2;
#X connect 7 0 8 3;
#X connect 8 0 3 1;
#X connect 9 0 4 0;
#X connect 9 0 5 0;
#X connect 9 0 6 0;
#X connect 9 0 7 0;
#X connect 10 0 16 1;
#X connect 11 0 16 2;
#X connect 12 0 13 0;
#X connect 12 0 10 0;
#X connect 13 0 14 0;
#X connect 14 0 11 0;
#X connect 15 0 16 0;
#X connect 18 0 22 0;
#X connect 19 0 1 0;
#X connect 19 1 25 0;
#X connect 19 2 32 0;
#X connect 19 2 46 0;
#X connect 20 0 19 0;
#X connect 21 0 19 0;
#X connect 22 0 21 0;
#X connect 23 0 20 0;
#X connect 24 0 19 1;
#X connect 25 0 26 0;
#X connect 25 1 27 0;
#X connect 25 2 28 0;
#X connect 26 0 31 0;
#X connect 29 0 53 0;
#X connect 30 0 61 0;
#X connect 32 0 29 0;
#X connect 33 0 19 0;
#X connect 34 0 41 0;
#X connect 35 0 36 0;
#X connect 36 0 34 0;
#X connect 37 0 38 0;
#X connect 38 0 34 0;
#X connect 39 0 37 0;
#X connect 40 0 35 0;
#X connect 41 0 52 0;
#X connect 42 0 41 1;
#X connect 46 2 59 0;
#X connect 46 3 47 0;
#X connect 48 0 49 0;
#X connect 49 0 40 0;
#X connect 50 0 51 0;
#X connect 51 0 39 0;
#X connect 55 0 9 0;
#X connect 55 0 54 0;
#X connect 57 0 60 0;
#X connect 60 0 45 0;
#X connect 60 1 58 0;
#X connect 60 2 19 0;
#X connect 61 0 57 0;
#X connect 62 0 19 0;
#X connect 63 0 64 0;
#X connect 64 0 23 0;
#X restore 845 564 pd videobackground;
#X obj 845 511 random 12;
#X obj 845 539 + 1;
#X obj 845 443 loadbang;
#X floatatom 879 542 5 0 0 0 - - -, f 5;
#X obj 845 486 bng 15 250 50 0 empty empty empty 17 7 0 10 -262144
-1 -1;
#X msg 848 96 0;
#X msg 882 96 1;
#X obj 848 60 loadbang;
#X floatatom 534 639 5 0 0 0 - - -, f 5;
#X obj 439 752 gemhead;
#X obj 438 804 separator;
#X floatatom 465 823 5 0 0 0 - - -, f 5;
#X floatatom 486 869 5 0 0 0 - - -, f 5;
#X obj 441 842 translateXYZ -5.35 0 0;
#X obj 438 887 rectangle 0.03 4;
#X obj 623 810 separator;
#X floatatom 650 829 5 0 0 0 - - -, f 5;
#X floatatom 671 875 5 0 0 0 - - -, f 5;
#X obj 623 893 rectangle 0.03 4;
#X obj 626 848 translateXYZ 5.35 0 0;
#X obj 440 774 color 1 1 1;
#X obj 480 380 sfile c 225;
#X obj 641 380 sfile b 140;
#X floatatom 667 72 3 0 0 0 - - -, f 3;
#X obj 667 46 keyname;
#X symbolatom 713 73 10 0 0 0 - - -, f 10;
#X connect 10 0 9 0;
#X connect 11 0 14 1;
#X connect 12 0 11 0;
#X connect 12 1 13 0;
#X connect 13 0 14 0;
#X connect 14 0 17 0;
#X connect 15 0 57 0;
#X connect 17 0 16 0;
#X connect 17 1 27 0;
#X connect 27 0 16 1;
#X connect 41 0 70 0;
#X connect 41 1 68 0;
#X connect 42 0 43 0;
#X connect 42 0 47 0;
#X connect 43 0 44 0;
#X connect 44 0 42 1;
#X connect 45 0 42 0;
#X connect 47 0 46 0;
#X connect 51 0 60 0;
#X connect 52 0 60 0;
#X connect 55 0 54 0;
#X connect 56 0 60 0;
#X connect 57 0 41 0;
#X connect 57 1 56 0;
#X connect 57 2 42 0;
#X connect 57 2 67 0;
#X connect 58 0 59 0;
#X connect 59 0 52 0;
#X connect 60 0 53 0;
#X connect 61 1 66 0;
#X connect 62 0 63 0;
#X connect 63 0 61 0;
#X connect 63 0 65 0;
#X connect 64 0 66 0;
#X connect 66 0 62 0;
#X connect 67 0 55 0;
#X connect 68 0 55 0;
#X connect 69 0 68 0;
#X connect 71 0 82 0;
#X connect 72 0 75 0;
#X connect 73 0 75 1;
#X connect 74 0 76 1;
#X connect 75 0 76 0;
#X connect 77 0 81 0;
#X connect 78 0 81 1;
#X connect 79 0 80 1;
#X connect 81 0 80 0;
#X connect 82 0 72 0;
#X connect 82 0 77 0;
#X connect 85 0 14 1;
#X connect 86 0 85 0;
#X connect 86 1 87 0;
#X connect 87 0 14 0;
