#N canvas 201 65 1254 805 10;
#X obj -24 -41 inlet;
#X obj -24 410 outlet;
#X obj 26 -41 inlet;
#X obj -42 85 t b a b;
#X obj -24 22 random 30;
#X obj -24 45 + 1;
#X obj -24 3 bng 15 250 50 0 empty empty empty 0 -6 0 8 -262144 -1
-1;
#X floatatom -16 66 5 0 0 0 - - -, f 5;
#X floatatom 26 6 5 0 0 0 - - -, f 5;
#X obj 124 164 bng 15 250 50 0 empty empty La_Fin 20 7 0 8 -1 -262144
-1;
#X floatatom -9 164 7 0 0 2 - - -, f 7;
#X obj -9 128 tgl 19 0 empty gemvfb Gem 0 -6 0 8 -258699 -1 -1 0 1
;
#X obj 98 90 vsl 8 40 0 1 0 0 empty alphavfb empty 0 -8 0 8 -195568
-1 -1 0 1;
#X floatatom 98 133 3 0 0 0 - - -, f 3;
#X floatatom 57 133 4 0 0 2 Taille tailVidFb -, f 4;
#X obj 124 128 bng 19 250 50 0 empty empty Start 0 -8 0 8 -24198 -258699
-1;
#X obj -9 147 LecteurVideoFondbleu \$1;
#X obj -42 522 delay 0;
#X floatatom -5 504 5 0 0 2 Delay_avid Delay_avid -, f 5;
#X connect 0 0 6 0;
#X connect 2 0 8 0;
#X connect 3 0 17 0;
#X connect 3 1 1 0;
#X connect 3 1 16 1;
#X connect 4 0 5 0;
#X connect 5 0 7 0;
#X connect 5 0 3 0;
#X connect 6 0 4 0;
#X connect 8 0 4 1;
#X connect 11 0 16 0;
#X connect 12 0 13 0;
#X connect 13 0 16 3;
#X connect 14 0 16 2;
#X connect 15 0 16 4;
#X connect 16 0 10 0;
#X connect 16 1 9 0;
#X connect 17 0 15 0;
#X connect 18 0 17 1;
