#N canvas 201 65 1254 805 10;
#X text 138 219 sfread <channels> <skip samples (e.g.header)>;
#X msg 372 202 start;
#X msg 411 202 stop;
#X msg 529 202 goto 100;
#X msg 482 202 rewind;
#X msg 445 202 close;
#X obj -24 -41 inlet;
#X msg 140 47 1;
#X msg 177 2 0;
#X obj 206 276 dbtorms;
#X obj 206 316 line~;
#X obj 70 377 *~;
#X obj 70 449 dac~;
#X obj 206 296 pack 0 50;
#X text 270 304 audio in;
#X text 249 254 <-- convert from dB to linear units;
#X text 267 284 <-- make a ramp to avoid clicks or zipper noise;
#X obj 132 374 *~;
#X obj 82 320 hip~ 3;
#X obj 144 320 hip~ 3;
#X floatatom 206 258 5 0 100 0 - - -, f 5;
#X msg 158 25 goto \$1;
#X msg 155 202 open bollywood/son_bollywood.wav l;
#X obj 140 -20 t b f b;
#X obj -24 410 outlet;
#X obj 126 408 outlet;
#X obj 453 -41 inlet;
#X msg 41 144 close;
#X obj 453 27 tgl 21 0 empty \$0-starta Play 0 -6 0 8 -24198 -258699
-1 0 1;
#X obj 140 -44 inlet;
#X obj 453 142 t f b;
#X obj 302 -41 inlet;
#X obj 302 114 pack f f;
#X obj 302 153 line;
#X floatatom 347 70 5 0 0 0 - fadetimein -, f 5;
#X obj 317 132 pack f f;
#X floatatom 362 110 5 0 0 0 - fadetimeout -, f 5;
#X obj 282 -15 bng 15 250 50 0 empty empty empty 0 -6 0 8 -262144 -1
-1;
#X obj 302 52 f;
#X floatatom 256 38 5 0 0 2 Vol_max Vol_max -, f 5;
#X obj 26 -41 inlet;
#X obj 445 171 r ib;
#X msg 317 87 0;
#X obj 302 28 t f b;
#X obj 302 7 * 100;
#N canvas 23 553 434 208 mkp 0;
#X obj 57 -4 inlet;
#X obj 57 20 t b b f;
#X floatatom 98 -3 5 0 0 0 - - -, f 5;
#X obj 57 117 outlet;
#X obj 57 87 makesymbol %s/%s%s.wav;
#X obj 2 42 symbol \$1;
#X obj 77 42 symbol \$1;
#X obj 57 64 pack s s f;
#X connect 0 0 1 0;
#X connect 1 0 5 0;
#X connect 1 1 6 0;
#X connect 1 2 7 2;
#X connect 2 0 1 0;
#X connect 4 0 3 0;
#X connect 5 0 7 0;
#X connect 6 0 7 1;
#X connect 7 0 4 0;
#X restore -11 117 pd mkp \$1;
#X msg 454 -9 1;
#X obj 59 110 openpanel;
#X obj 62 85 bng 15 250 50 0 empty empty empty 0 -6 0 8 -262144 -1
-1;
#X obj -42 85 t b a b;
#X obj -42 239 delay 0;
#X floatatom -5 221 5 0 0 2 Delay_audio Delay_audio -, f 5;
#X obj 14 319 print oooo;
#X obj 83 219 readsf~ 2;
#X msg -11 174 open \$1;
#X obj -24 22 random 30;
#X obj -24 45 + 1;
#X obj -24 3 bng 15 250 50 0 empty empty empty 0 -6 0 8 -262144 -1
-1;
#X floatatom -16 66 5 0 0 0 - - -, f 5;
#X floatatom 26 6 5 0 0 0 - - -, f 5;
#X connect 1 0 53 0;
#X connect 2 0 53 0;
#X connect 3 0 53 0;
#X connect 4 0 53 0;
#X connect 5 0 53 0;
#X connect 6 0 57 0;
#X connect 7 0 53 0;
#X connect 8 0 53 0;
#X connect 9 0 13 0;
#X connect 10 0 17 0;
#X connect 10 0 11 0;
#X connect 11 0 12 0;
#X connect 13 0 10 0;
#X connect 17 0 12 1;
#X connect 18 0 11 1;
#X connect 19 0 17 1;
#X connect 20 0 9 0;
#X connect 21 0 53 0;
#X connect 22 0 53 0;
#X connect 23 0 7 0;
#X connect 23 1 21 0;
#X connect 23 2 8 0;
#X connect 27 0 53 0;
#X connect 28 0 30 0;
#X connect 29 0 23 0;
#X connect 30 0 53 0;
#X connect 30 1 38 0;
#X connect 31 0 44 0;
#X connect 32 0 33 0;
#X connect 33 0 9 0;
#X connect 34 0 32 1;
#X connect 35 0 33 0;
#X connect 36 0 35 1;
#X connect 37 0 38 0;
#X connect 38 0 32 0;
#X connect 39 0 38 1;
#X connect 40 0 59 0;
#X connect 42 0 28 0;
#X connect 42 0 35 0;
#X connect 43 0 38 0;
#X connect 44 0 43 0;
#X connect 45 0 54 0;
#X connect 46 0 28 0;
#X connect 47 0 54 0;
#X connect 48 0 47 0;
#X connect 49 0 50 0;
#X connect 49 1 45 0;
#X connect 49 1 24 0;
#X connect 50 0 46 0;
#X connect 51 0 50 1;
#X connect 53 0 18 0;
#X connect 53 1 19 0;
#X connect 53 2 25 0;
#X connect 53 2 42 0;
#X connect 54 0 53 0;
#X connect 55 0 56 0;
#X connect 56 0 58 0;
#X connect 56 0 49 0;
#X connect 57 0 55 0;
#X connect 59 0 55 1;
