#N canvas 83 274 1254 805 10;
#X obj 263 363 dbtorms;
#X obj 263 403 line~;
#X obj 59 421 *~;
#X obj 59 452 dac~;
#X obj 263 383 pack 0 50;
#X text 327 391 audio in;
#X text 306 341 <-- convert from dB to linear units;
#X text 324 371 <-- make a ramp to avoid clicks or zipper noise;
#X obj 85 421 *~;
#X obj 77 363 hip~ 3;
#X obj 127 364 hip~ 3;
#X floatatom 263 345 5 0 100 0 - - -, f 5;
#X obj 157 182 openpanel;
#X obj 157 160 bng 15 250 50 0 empty empty empty 0 -6 0 8 -262144 -1
-1;
#X obj 78 307 readsf~ 2;
#X msg 96 217 open \$1;
#X obj 41 18 inlet;
#X msg 78 181 1;
#X obj 41 40 unpack s f;
#X obj 41 88 pack s s f;
#X obj 41 64 t a a;
#X msg 41 132 open \$1;
#X obj 41 156 t b b b a b;
#X msg 115 182 0;
#X obj 41 111 makesymbol %s/%s%s.wav;
#X obj 263 303 loadbang;
#X msg 263 324 95;
#X connect 0 0 4 0;
#X connect 1 0 8 0;
#X connect 1 0 2 0;
#X connect 2 0 3 0;
#X connect 4 0 1 0;
#X connect 8 0 3 1;
#X connect 9 0 2 1;
#X connect 10 0 8 1;
#X connect 11 0 0 0;
#X connect 12 0 15 0;
#X connect 13 0 12 0;
#X connect 14 0 9 0;
#X connect 14 1 10 0;
#X connect 15 0 14 0;
#X connect 16 0 18 0;
#X connect 17 0 14 0;
#X connect 18 0 20 0;
#X connect 18 1 19 2;
#X connect 19 0 24 0;
#X connect 20 0 19 0;
#X connect 20 1 19 1;
#X connect 21 0 22 0;
#X connect 22 2 17 0;
#X connect 22 3 15 0;
#X connect 22 4 23 0;
#X connect 23 0 14 0;
#X connect 24 0 21 0;
#X connect 25 0 26 0;
#X connect 26 0 11 0;
