#N canvas 887 757 450 300 10;
#X obj 198 80 sel \$1;
#X obj 198 129 + 1;
#X obj 198 108 random \$2;
#X obj 198 232 outlet;
#X obj 198 175 symbol \$1;
#X obj 198 152 t b f;
#X obj 198 199 pack s f;
#X obj 150 264 s player;
#X obj 198 50 r \$1;
#X connect 0 0 2 0;
#X connect 1 0 5 0;
#X connect 2 0 1 0;
#X connect 4 0 6 0;
#X connect 5 0 4 0;
#X connect 5 1 6 1;
#X connect 6 0 3 0;
#X connect 6 0 7 0;
#X connect 8 0 0 0;
